<svg xmlns="http://www.w3.org/2000/svg" width="238.129" height="44.61" viewBox="0 0 238.129 44.61"><g transform="translate(-318.386 -209)"><g transform="translate(318.386 209)"><g transform="translate(0 0)"><g transform="translate(0)"><g transform="translate(44.61 44.61) rotate(-180)"><path d="M0,36.823V7.78A7.6,7.6,0,0,1,7.415,0H37.187A7.606,7.606,0,0,1,44.61,7.78V36.823a7.613,7.613,0,0,1-7.423,7.788H7.415A7.609,7.609,0,0,1,0,36.823" transform="translate(0 0)" fill="#ef3b55"/></g><g transform="translate(36.291 38.783) rotate(-180)"><path d="M.344,6.471l1.926,1.9L3.805,9.883a1.146,1.146,0,0,0,1.608.008,9.07,9.07,0,1,1,.04,12.943,1.156,1.156,0,0,0-1.615.02L.417,26.3a1.154,1.154,0,0,0,0,1.63c4.871,4.857,11.346,6.061,17.929,3.534a15.2,15.2,0,0,0,8.687-8.708A16.376,16.376,0,0,0,.338,4.832,1.155,1.155,0,0,0,.344,6.471Zm25.3,12.093A14.061,14.061,0,0,1,11.788,30.375a13.908,13.908,0,0,1-4.535-.753L7,30.061a.67.67,0,0,1-1.161,0l-.944-1.636L3.949,26.79a.67.67,0,0,1,.581-1.006H8.307a.671.671,0,0,1,.581,1.006l-.34.589a11.51,11.51,0,0,0,14.6-9.2,1.262,1.262,0,0,1,2.5.384ZM3.949,5.871l.944-1.636L5.837,2.6A.67.67,0,0,1,7,2.6l.254.44a13.914,13.914,0,0,1,4.535-.754A14.061,14.061,0,0,1,25.645,14.1a1.263,1.263,0,0,1-2.5.384,11.51,11.51,0,0,0-14.6-9.2l.34.589a.67.67,0,0,1-.581,1.006H4.529A.67.67,0,0,1,3.949,5.871Z" transform="translate(0 0)" fill="none" stroke="#fff" stroke-miterlimit="10" stroke-width="1"/></g><g transform="translate(36.506 38.783) rotate(-180)"><path d="M.344,6.471l1.926,1.9L3.805,9.883a1.146,1.146,0,0,0,1.608.008,9.07,9.07,0,1,1,.04,12.943,1.156,1.156,0,0,0-1.615.02L.417,26.3a1.154,1.154,0,0,0,0,1.63c4.871,4.857,11.346,6.061,17.929,3.534a15.2,15.2,0,0,0,8.687-8.708A16.376,16.376,0,0,0,.338,4.832,1.155,1.155,0,0,0,.344,6.471m25.3,12.093A14.061,14.061,0,0,1,11.788,30.375a13.908,13.908,0,0,1-4.535-.753L7,30.061a.67.67,0,0,1-1.161,0l-.944-1.636L3.949,26.79a.67.67,0,0,1,.581-1.006H8.307a.671.671,0,0,1,.581,1.006l-.34.589a11.51,11.51,0,0,0,14.6-9.2,1.262,1.262,0,0,1,2.5.384M3.949,5.871l.944-1.636L5.837,2.6A.67.67,0,0,1,7,2.6l.254.44a13.914,13.914,0,0,1,4.535-.754A14.061,14.061,0,0,1,25.645,14.1a1.263,1.263,0,0,1-2.5.384,11.51,11.51,0,0,0-14.6-9.2l.34.589a.67.67,0,0,1-.581,1.006H4.529a.67.67,0,0,1-.58-1.006" transform="translate(0 0)" fill="#fff"/></g></g></g><path d="M13.376,30.372a12.464,12.464,0,0,1-6-1.441,10.758,10.758,0,0,1-4.216-4A11.018,11.018,0,0,1,1.627,19.15a11.018,11.018,0,0,1,1.535-5.782,10.758,10.758,0,0,1,4.216-4,12.529,12.529,0,0,1,6.03-1.442,12.647,12.647,0,0,1,5.1.992,10.214,10.214,0,0,1,3.828,2.852l-3.224,2.976a6.932,6.932,0,0,0-5.456-2.542,7.245,7.245,0,0,0-3.6.884,6.281,6.281,0,0,0-2.464,2.464,7.245,7.245,0,0,0-.884,3.6,7.245,7.245,0,0,0,.884,3.6,6.281,6.281,0,0,0,2.464,2.465,7.245,7.245,0,0,0,3.6.883,6.9,6.9,0,0,0,5.456-2.573L22.335,26.5a10.049,10.049,0,0,1-3.844,2.883A12.758,12.758,0,0,1,13.376,30.372Zm22.382,0a12.666,12.666,0,0,1-6.092-1.457A10.814,10.814,0,0,1,25.419,24.9a10.96,10.96,0,0,1-1.535-5.75A10.96,10.96,0,0,1,25.419,13.4a10.814,10.814,0,0,1,4.247-4.014,12.666,12.666,0,0,1,6.092-1.457,12.576,12.576,0,0,1,6.076,1.457,10.859,10.859,0,0,1,5.8,9.765,10.859,10.859,0,0,1-5.8,9.765A12.576,12.576,0,0,1,35.758,30.372Zm0-4.278a6.886,6.886,0,0,0,3.472-.883,6.34,6.34,0,0,0,2.434-2.465,7.245,7.245,0,0,0,.883-3.6,7.245,7.245,0,0,0-.883-3.6A6.34,6.34,0,0,0,39.23,13.09a7.264,7.264,0,0,0-6.944,0,6.34,6.34,0,0,0-2.434,2.464,7.245,7.245,0,0,0-.884,3.6,7.245,7.245,0,0,0,.884,3.6,6.34,6.34,0,0,0,2.434,2.465A6.886,6.886,0,0,0,35.758,26.094Zm25.3,4.278A9.82,9.82,0,0,1,53.815,27.8q-2.588-2.573-2.588-7.347V8.3h5.022V20.266q0,5.828,4.836,5.828a4.533,4.533,0,0,0,3.6-1.41,6.575,6.575,0,0,0,1.24-4.418V8.3h4.96V20.452q0,4.774-2.589,7.347A9.82,9.82,0,0,1,61.054,30.372Zm18.91-17.98H73.02V8.3H91.93v4.092H84.986V30H79.964ZM94.627,8.3h5.022V25.908H110.53V30h-15.9Zm28.861,22.072a12.666,12.666,0,0,1-6.091-1.457,10.814,10.814,0,0,1-4.247-4.014,10.96,10.96,0,0,1-1.535-5.75,10.96,10.96,0,0,1,1.535-5.751A10.814,10.814,0,0,1,117.4,9.385a13.43,13.43,0,0,1,12.167,0,10.859,10.859,0,0,1,5.8,9.765,10.859,10.859,0,0,1-5.8,9.765A12.576,12.576,0,0,1,123.488,30.372Zm0-4.278a6.886,6.886,0,0,0,3.472-.883,6.34,6.34,0,0,0,2.433-2.465,7.245,7.245,0,0,0,.883-3.6,7.245,7.245,0,0,0-.883-3.6,6.34,6.34,0,0,0-2.433-2.464,7.264,7.264,0,0,0-6.944,0,6.34,6.34,0,0,0-2.434,2.464,7.245,7.245,0,0,0-.883,3.6,7.245,7.245,0,0,0,.883,3.6,6.34,6.34,0,0,0,2.434,2.465A6.886,6.886,0,0,0,123.488,26.094Zm26.164,4.278a12.666,12.666,0,0,1-6.092-1.457,10.814,10.814,0,0,1-4.247-4.014,10.96,10.96,0,0,1-1.535-5.75,10.96,10.96,0,0,1,1.535-5.751,10.814,10.814,0,0,1,4.247-4.014,13.43,13.43,0,0,1,12.168,0,10.859,10.859,0,0,1,5.8,9.765,10.859,10.859,0,0,1-5.8,9.765A12.576,12.576,0,0,1,149.652,30.372Zm0-4.278a6.886,6.886,0,0,0,3.472-.883,6.34,6.34,0,0,0,2.434-2.465,7.245,7.245,0,0,0,.883-3.6,7.245,7.245,0,0,0-.883-3.6,6.34,6.34,0,0,0-2.434-2.464,7.264,7.264,0,0,0-6.944,0,6.34,6.34,0,0,0-2.434,2.464,7.245,7.245,0,0,0-.883,3.6,7.245,7.245,0,0,0,.883,3.6,6.34,6.34,0,0,0,2.434,2.465A6.886,6.886,0,0,0,149.652,26.094Zm19.84-13.7h-6.944V8.3h18.91v4.092h-6.944V30h-5.022Z" transform="translate(56.671 2.339)" fill="#ef3b55"/></g></g></svg>